<mxfile host="app.diagrams.net" modified="2024-03-05T09:13:57.711Z" agent="Mozilla/5.0 (X11; Ubuntu; Linux x86_64; rv:123.0) Gecko/20100101 Firefox/123.0" version="23.1.6" etag="KZ-g62J7PQnraeOt8_bC" type="github">
  <diagram name="Page-1" id="hZ3t9H2E8VO1mtVpyjtV">
    <mxGraphModel>
      <root>
        <mxCell id="0" />
        <mxCell id="1" parent="0" />
      </root>
    </mxGraphModel>
  </diagram>
</mxfile>
